<mxfile host="app.diagrams.net" modified="2024-08-09T10:30:42.574Z" agent="Mozilla/5.0 (Macintosh; Intel Mac OS X 10.15; rv:128.0) Gecko/20100101 Firefox/128.0" etag="ltSPjSNO39JlpZwF78Mw" version="24.7.2" type="device">
  <diagram name="Page-1" id="h7bXwLMSPR1fkNjo1VCh">
    <mxGraphModel dx="2218" dy="1865" grid="1" gridSize="10" guides="1" tooltips="1" connect="1" arrows="1" fold="1" page="1" pageScale="1" pageWidth="850" pageHeight="1100" math="0" shadow="0">
      <root>
        <mxCell id="0" />
        <mxCell id="1" parent="0" />
        <mxCell id="-TM3CR56b110htTmu4-r-33" style="edgeStyle=orthogonalEdgeStyle;rounded=0;orthogonalLoop=1;jettySize=auto;html=1;exitX=1;exitY=0.75;exitDx=0;exitDy=0;" edge="1" parent="1" source="-TM3CR56b110htTmu4-r-21" target="-TM3CR56b110htTmu4-r-32">
          <mxGeometry relative="1" as="geometry">
            <Array as="points">
              <mxPoint x="245" y="245" />
            </Array>
          </mxGeometry>
        </mxCell>
        <mxCell id="-TM3CR56b110htTmu4-r-21" value="" style="rounded=1;whiteSpace=wrap;html=1;" vertex="1" parent="1">
          <mxGeometry x="140" y="200" width="120" height="60" as="geometry" />
        </mxCell>
        <mxCell id="-TM3CR56b110htTmu4-r-19" value="" style="rounded=1;whiteSpace=wrap;html=1;" vertex="1" parent="1">
          <mxGeometry x="750" y="30" width="280" height="490" as="geometry" />
        </mxCell>
        <mxCell id="-TM3CR56b110htTmu4-r-5" value="" style="rounded=1;whiteSpace=wrap;html=1;" vertex="1" parent="1">
          <mxGeometry x="580" y="160" width="120" height="60" as="geometry" />
        </mxCell>
        <mxCell id="-TM3CR56b110htTmu4-r-16" style="edgeStyle=orthogonalEdgeStyle;rounded=0;orthogonalLoop=1;jettySize=auto;html=1;exitX=1;exitY=0.5;exitDx=0;exitDy=0;" edge="1" parent="1" source="-TM3CR56b110htTmu4-r-1" target="-TM3CR56b110htTmu4-r-12">
          <mxGeometry relative="1" as="geometry" />
        </mxCell>
        <mxCell id="-TM3CR56b110htTmu4-r-55" style="edgeStyle=orthogonalEdgeStyle;rounded=0;orthogonalLoop=1;jettySize=auto;html=1;entryX=1;entryY=0.75;entryDx=0;entryDy=0;" edge="1" parent="1" source="-TM3CR56b110htTmu4-r-1" target="-TM3CR56b110htTmu4-r-53">
          <mxGeometry relative="1" as="geometry">
            <Array as="points">
              <mxPoint x="630" y="110" />
              <mxPoint x="523" y="110" />
              <mxPoint x="523" y="-15" />
            </Array>
          </mxGeometry>
        </mxCell>
        <mxCell id="-TM3CR56b110htTmu4-r-1" value="IOS notification workers" style="rounded=1;whiteSpace=wrap;html=1;" vertex="1" parent="1">
          <mxGeometry x="570" y="150" width="120" height="60" as="geometry" />
        </mxCell>
        <mxCell id="-TM3CR56b110htTmu4-r-6" value="" style="rounded=1;whiteSpace=wrap;html=1;" vertex="1" parent="1">
          <mxGeometry x="585" y="280" width="120" height="60" as="geometry" />
        </mxCell>
        <mxCell id="-TM3CR56b110htTmu4-r-17" style="edgeStyle=orthogonalEdgeStyle;rounded=0;orthogonalLoop=1;jettySize=auto;html=1;exitX=1;exitY=0.5;exitDx=0;exitDy=0;" edge="1" parent="1" source="-TM3CR56b110htTmu4-r-7" target="-TM3CR56b110htTmu4-r-13">
          <mxGeometry relative="1" as="geometry" />
        </mxCell>
        <mxCell id="-TM3CR56b110htTmu4-r-7" value="Android notification workers" style="rounded=1;whiteSpace=wrap;html=1;" vertex="1" parent="1">
          <mxGeometry x="575" y="270" width="120" height="60" as="geometry" />
        </mxCell>
        <mxCell id="-TM3CR56b110htTmu4-r-8" value="" style="rounded=1;whiteSpace=wrap;html=1;" vertex="1" parent="1">
          <mxGeometry x="585" y="400" width="120" height="60" as="geometry" />
        </mxCell>
        <mxCell id="-TM3CR56b110htTmu4-r-18" style="edgeStyle=orthogonalEdgeStyle;rounded=0;orthogonalLoop=1;jettySize=auto;html=1;exitX=1;exitY=0.5;exitDx=0;exitDy=0;entryX=0;entryY=0.5;entryDx=0;entryDy=0;" edge="1" parent="1" source="-TM3CR56b110htTmu4-r-9" target="-TM3CR56b110htTmu4-r-14">
          <mxGeometry relative="1" as="geometry" />
        </mxCell>
        <mxCell id="-TM3CR56b110htTmu4-r-28" style="edgeStyle=orthogonalEdgeStyle;rounded=0;orthogonalLoop=1;jettySize=auto;html=1;" edge="1" parent="1" source="-TM3CR56b110htTmu4-r-9" target="-TM3CR56b110htTmu4-r-27">
          <mxGeometry relative="1" as="geometry" />
        </mxCell>
        <mxCell id="-TM3CR56b110htTmu4-r-9" value="Email notification workers" style="rounded=1;whiteSpace=wrap;html=1;" vertex="1" parent="1">
          <mxGeometry x="575" y="390" width="120" height="60" as="geometry" />
        </mxCell>
        <mxCell id="-TM3CR56b110htTmu4-r-56" style="edgeStyle=orthogonalEdgeStyle;rounded=0;orthogonalLoop=1;jettySize=auto;html=1;exitX=0.75;exitY=0;exitDx=0;exitDy=0;entryX=1;entryY=0.25;entryDx=0;entryDy=0;" edge="1" parent="1" source="-TM3CR56b110htTmu4-r-12" target="-TM3CR56b110htTmu4-r-53">
          <mxGeometry relative="1" as="geometry" />
        </mxCell>
        <mxCell id="-TM3CR56b110htTmu4-r-12" value="Apple" style="rounded=1;whiteSpace=wrap;html=1;" vertex="1" parent="1">
          <mxGeometry x="800" y="150" width="120" height="60" as="geometry" />
        </mxCell>
        <mxCell id="-TM3CR56b110htTmu4-r-13" value="Google" style="rounded=1;whiteSpace=wrap;html=1;" vertex="1" parent="1">
          <mxGeometry x="800" y="270" width="120" height="60" as="geometry" />
        </mxCell>
        <mxCell id="-TM3CR56b110htTmu4-r-14" value="Gmail" style="rounded=1;whiteSpace=wrap;html=1;" vertex="1" parent="1">
          <mxGeometry x="800" y="390" width="120" height="60" as="geometry" />
        </mxCell>
        <mxCell id="-TM3CR56b110htTmu4-r-42" style="edgeStyle=orthogonalEdgeStyle;rounded=0;orthogonalLoop=1;jettySize=auto;html=1;" edge="1" parent="1" source="-TM3CR56b110htTmu4-r-20" target="-TM3CR56b110htTmu4-r-38">
          <mxGeometry relative="1" as="geometry" />
        </mxCell>
        <mxCell id="-TM3CR56b110htTmu4-r-54" style="edgeStyle=orthogonalEdgeStyle;rounded=0;orthogonalLoop=1;jettySize=auto;html=1;exitX=0.75;exitY=0;exitDx=0;exitDy=0;entryX=0.5;entryY=1;entryDx=0;entryDy=0;" edge="1" parent="1" source="-TM3CR56b110htTmu4-r-20" target="-TM3CR56b110htTmu4-r-53">
          <mxGeometry relative="1" as="geometry">
            <Array as="points">
              <mxPoint x="290" y="185" />
              <mxPoint x="290" y="92" />
              <mxPoint x="415" y="92" />
            </Array>
          </mxGeometry>
        </mxCell>
        <mxCell id="-TM3CR56b110htTmu4-r-20" value="Notifications service" style="rounded=1;whiteSpace=wrap;html=1;" vertex="1" parent="1">
          <mxGeometry x="130" y="185" width="120" height="60" as="geometry" />
        </mxCell>
        <mxCell id="-TM3CR56b110htTmu4-r-22" value="User / device DB" style="shape=cylinder3;whiteSpace=wrap;html=1;boundedLbl=1;backgroundOutline=1;size=15;" vertex="1" parent="1">
          <mxGeometry x="130" y="350" width="70" height="90" as="geometry" />
        </mxCell>
        <mxCell id="-TM3CR56b110htTmu4-r-23" value="User cache" style="shape=cylinder3;whiteSpace=wrap;html=1;boundedLbl=1;backgroundOutline=1;size=15;" vertex="1" parent="1">
          <mxGeometry x="-20" y="155" width="70" height="90" as="geometry" />
        </mxCell>
        <mxCell id="-TM3CR56b110htTmu4-r-25" style="edgeStyle=orthogonalEdgeStyle;rounded=0;orthogonalLoop=1;jettySize=auto;html=1;exitX=0.75;exitY=1;exitDx=0;exitDy=0;entryX=0.5;entryY=0;entryDx=0;entryDy=0;entryPerimeter=0;" edge="1" parent="1" source="-TM3CR56b110htTmu4-r-21" target="-TM3CR56b110htTmu4-r-22">
          <mxGeometry relative="1" as="geometry">
            <Array as="points">
              <mxPoint x="165" y="260" />
            </Array>
          </mxGeometry>
        </mxCell>
        <mxCell id="-TM3CR56b110htTmu4-r-27" value="Template storage" style="shape=cylinder3;whiteSpace=wrap;html=1;boundedLbl=1;backgroundOutline=1;size=15;" vertex="1" parent="1">
          <mxGeometry x="605" y="520" width="60" height="80" as="geometry" />
        </mxCell>
        <mxCell id="-TM3CR56b110htTmu4-r-29" style="edgeStyle=orthogonalEdgeStyle;rounded=0;orthogonalLoop=1;jettySize=auto;html=1;exitX=0.75;exitY=1;exitDx=0;exitDy=0;entryX=0;entryY=0;entryDx=0;entryDy=52.5;entryPerimeter=0;" edge="1" parent="1" source="-TM3CR56b110htTmu4-r-6" target="-TM3CR56b110htTmu4-r-27">
          <mxGeometry relative="1" as="geometry">
            <Array as="points">
              <mxPoint x="675" y="360" />
              <mxPoint x="565" y="360" />
              <mxPoint x="565" y="573" />
            </Array>
          </mxGeometry>
        </mxCell>
        <mxCell id="-TM3CR56b110htTmu4-r-30" style="edgeStyle=orthogonalEdgeStyle;rounded=0;orthogonalLoop=1;jettySize=auto;html=1;exitX=0;exitY=0.25;exitDx=0;exitDy=0;entryX=0;entryY=0;entryDx=0;entryDy=27.5;entryPerimeter=0;" edge="1" parent="1" source="-TM3CR56b110htTmu4-r-1" target="-TM3CR56b110htTmu4-r-27">
          <mxGeometry relative="1" as="geometry" />
        </mxCell>
        <mxCell id="-TM3CR56b110htTmu4-r-32" value="Notification storage" style="shape=cylinder3;whiteSpace=wrap;html=1;boundedLbl=1;backgroundOutline=1;size=15;" vertex="1" parent="1">
          <mxGeometry x="210" y="350" width="70" height="90" as="geometry" />
        </mxCell>
        <mxCell id="-TM3CR56b110htTmu4-r-35" style="edgeStyle=orthogonalEdgeStyle;rounded=0;orthogonalLoop=1;jettySize=auto;html=1;entryX=0.5;entryY=0;entryDx=0;entryDy=0;" edge="1" parent="1" source="-TM3CR56b110htTmu4-r-34" target="-TM3CR56b110htTmu4-r-20">
          <mxGeometry relative="1" as="geometry" />
        </mxCell>
        <mxCell id="-TM3CR56b110htTmu4-r-34" value="Load balancer" style="rounded=1;whiteSpace=wrap;html=1;" vertex="1" parent="1">
          <mxGeometry x="130" y="70" width="120" height="60" as="geometry" />
        </mxCell>
        <mxCell id="-TM3CR56b110htTmu4-r-36" style="edgeStyle=orthogonalEdgeStyle;rounded=0;orthogonalLoop=1;jettySize=auto;html=1;exitX=0;exitY=0.25;exitDx=0;exitDy=0;entryX=1;entryY=0.5;entryDx=0;entryDy=0;entryPerimeter=0;" edge="1" parent="1" source="-TM3CR56b110htTmu4-r-20" target="-TM3CR56b110htTmu4-r-23">
          <mxGeometry relative="1" as="geometry">
            <mxPoint x="50" y="200" as="targetPoint" />
          </mxGeometry>
        </mxCell>
        <mxCell id="-TM3CR56b110htTmu4-r-37" value="Outside of our system" style="text;html=1;align=center;verticalAlign=middle;whiteSpace=wrap;rounded=0;" vertex="1" parent="1">
          <mxGeometry x="830" y="60" width="60" height="30" as="geometry" />
        </mxCell>
        <mxCell id="-TM3CR56b110htTmu4-r-43" style="edgeStyle=orthogonalEdgeStyle;rounded=0;orthogonalLoop=1;jettySize=auto;html=1;exitX=0.5;exitY=0;exitDx=0;exitDy=0;exitPerimeter=0;" edge="1" parent="1" source="-TM3CR56b110htTmu4-r-38" target="-TM3CR56b110htTmu4-r-1">
          <mxGeometry relative="1" as="geometry" />
        </mxCell>
        <mxCell id="-TM3CR56b110htTmu4-r-38" value="" style="shape=cylinder3;whiteSpace=wrap;html=1;boundedLbl=1;backgroundOutline=1;size=15;rotation=90;" vertex="1" parent="1">
          <mxGeometry x="410" y="117.5" width="30" height="125" as="geometry" />
        </mxCell>
        <mxCell id="-TM3CR56b110htTmu4-r-39" value="IOS notification queue" style="text;html=1;align=center;verticalAlign=middle;whiteSpace=wrap;rounded=0;" vertex="1" parent="1">
          <mxGeometry x="385" y="120" width="60" height="30" as="geometry" />
        </mxCell>
        <mxCell id="-TM3CR56b110htTmu4-r-46" style="edgeStyle=orthogonalEdgeStyle;rounded=0;orthogonalLoop=1;jettySize=auto;html=1;" edge="1" parent="1" source="-TM3CR56b110htTmu4-r-44" target="-TM3CR56b110htTmu4-r-7">
          <mxGeometry relative="1" as="geometry" />
        </mxCell>
        <mxCell id="-TM3CR56b110htTmu4-r-44" value="" style="shape=cylinder3;whiteSpace=wrap;html=1;boundedLbl=1;backgroundOutline=1;size=15;rotation=90;" vertex="1" parent="1">
          <mxGeometry x="400" y="237.5" width="30" height="125" as="geometry" />
        </mxCell>
        <mxCell id="-TM3CR56b110htTmu4-r-45" value="Android&amp;nbsp; notification queue" style="text;html=1;align=center;verticalAlign=middle;whiteSpace=wrap;rounded=0;" vertex="1" parent="1">
          <mxGeometry x="385" y="242.5" width="60" height="30" as="geometry" />
        </mxCell>
        <mxCell id="-TM3CR56b110htTmu4-r-48" style="edgeStyle=orthogonalEdgeStyle;rounded=0;orthogonalLoop=1;jettySize=auto;html=1;exitX=1;exitY=0.5;exitDx=0;exitDy=0;entryX=0.5;entryY=1;entryDx=0;entryDy=0;entryPerimeter=0;" edge="1" parent="1" source="-TM3CR56b110htTmu4-r-21" target="-TM3CR56b110htTmu4-r-44">
          <mxGeometry relative="1" as="geometry">
            <Array as="points">
              <mxPoint x="340" y="230" />
              <mxPoint x="340" y="300" />
            </Array>
          </mxGeometry>
        </mxCell>
        <mxCell id="-TM3CR56b110htTmu4-r-52" style="edgeStyle=orthogonalEdgeStyle;rounded=0;orthogonalLoop=1;jettySize=auto;html=1;" edge="1" parent="1" source="-TM3CR56b110htTmu4-r-49" target="-TM3CR56b110htTmu4-r-9">
          <mxGeometry relative="1" as="geometry" />
        </mxCell>
        <mxCell id="-TM3CR56b110htTmu4-r-49" value="" style="shape=cylinder3;whiteSpace=wrap;html=1;boundedLbl=1;backgroundOutline=1;size=15;rotation=90;" vertex="1" parent="1">
          <mxGeometry x="400" y="357.5" width="30" height="125" as="geometry" />
        </mxCell>
        <mxCell id="-TM3CR56b110htTmu4-r-50" value="Email&amp;nbsp; notification queue" style="text;html=1;align=center;verticalAlign=middle;whiteSpace=wrap;rounded=0;" vertex="1" parent="1">
          <mxGeometry x="385" y="362.5" width="60" height="30" as="geometry" />
        </mxCell>
        <mxCell id="-TM3CR56b110htTmu4-r-51" style="edgeStyle=orthogonalEdgeStyle;rounded=0;orthogonalLoop=1;jettySize=auto;html=1;exitX=1;exitY=0.75;exitDx=0;exitDy=0;entryX=0.5;entryY=1;entryDx=0;entryDy=0;entryPerimeter=0;" edge="1" parent="1" source="-TM3CR56b110htTmu4-r-20" target="-TM3CR56b110htTmu4-r-49">
          <mxGeometry relative="1" as="geometry">
            <Array as="points">
              <mxPoint x="250" y="240" />
              <mxPoint x="301" y="240" />
              <mxPoint x="301" y="420" />
            </Array>
          </mxGeometry>
        </mxCell>
        <mxCell id="-TM3CR56b110htTmu4-r-53" value="Analytics service" style="rounded=1;whiteSpace=wrap;html=1;" vertex="1" parent="1">
          <mxGeometry x="355" y="-60" width="120" height="60" as="geometry" />
        </mxCell>
        <mxCell id="-TM3CR56b110htTmu4-r-57" value="Notification lifecycle storage" style="shape=cylinder3;whiteSpace=wrap;html=1;boundedLbl=1;backgroundOutline=1;size=15;" vertex="1" parent="1">
          <mxGeometry x="377.5" y="-220" width="75" height="90" as="geometry" />
        </mxCell>
        <mxCell id="-TM3CR56b110htTmu4-r-58" style="edgeStyle=orthogonalEdgeStyle;rounded=0;orthogonalLoop=1;jettySize=auto;html=1;entryX=0.5;entryY=1;entryDx=0;entryDy=0;entryPerimeter=0;" edge="1" parent="1" source="-TM3CR56b110htTmu4-r-53" target="-TM3CR56b110htTmu4-r-57">
          <mxGeometry relative="1" as="geometry" />
        </mxCell>
      </root>
    </mxGraphModel>
  </diagram>
</mxfile>
